<?xml version="1.0" standalone="no"?>
<!DOCTYPE svg PUBLIC "-//W3C//DTD SVG 1.1//EN" "http://www.w3.org/Graphics/SVG/1.1/DTD/svg11.dtd" >
<svg xmlns="http://www.w3.org/2000/svg">
<metadata>
Created by FontForge 20120731 at Sun May 21 02:12:41 2017
 By admin
</metadata>
<defs>
<font id="iconfont" horiz-adv-x="1024" >
  <font-face 
    font-family="iconfont"
    font-weight="500"
    font-stretch="normal"
    units-per-em="1024"
    panose-1="2 0 6 3 0 0 0 0 0 0"
    ascent="896"
    descent="-128"
    x-height="792"
    bbox="0 -212 1026 896"
    underline-thickness="0"
    underline-position="0"
    unicode-range="U+0078-E7B1"
  />
<missing-glyph 
 />
    <glyph glyph-name=".notdef" 
 />
    <glyph glyph-name=".notdef" 
 />
    <glyph glyph-name=".null" horiz-adv-x="0" 
 />
    <glyph glyph-name="nonmarkingreturn" horiz-adv-x="341" 
 />
    <glyph glyph-name="x" unicode="x" horiz-adv-x="1001" 
d="M281 543q-27 -1 -53 -1h-83q-18 0 -36.5 -6t-32.5 -18.5t-23 -32t-9 -45.5v-76h912v41q0 16 -0.5 30t-0.5 18q0 13 -5 29t-17 29.5t-31.5 22.5t-49.5 9h-133v-97h-438v97zM955 310v-52q0 -23 0.5 -52t0.5 -58t-10.5 -47.5t-26 -30t-33 -16t-31.5 -4.5q-14 -1 -29.5 -0.5
t-29.5 0.5h-32l-45 128h-439l-44 -128h-29h-34q-20 0 -45 1q-25 0 -41 9.5t-25.5 23t-13.5 29.5t-4 30v167h911zM163 247q-12 0 -21 -8.5t-9 -21.5t9 -21.5t21 -8.5q13 0 22 8.5t9 21.5t-9 21.5t-22 8.5zM316 123q-8 -26 -14 -48q-5 -19 -10.5 -37t-7.5 -25t-3 -15t1 -14.5
t9.5 -10.5t21.5 -4h37h67h81h80h64h36q23 0 34 12t2 38q-5 13 -9.5 30.5t-9.5 34.5q-5 19 -11 39h-368zM336 498v228q0 11 2.5 23t10 21.5t20.5 15.5t34 6h188q31 0 51.5 -14.5t20.5 -52.5v-227h-327z" />
    <glyph glyph-name="gouwuche" unicode="&#xe600;" horiz-adv-x="1000" 
d="M70 678h109q29 -7 30 -33q0 -2 1 -3l88 -479v-3q7 -18 22 -35q31 -35 76 -35h501q9 0 14.5 6t5.5 14.5t-5.5 14t-14.5 5.5h-501q-18 0 -32 10t-19 17.5t-9 14.5l-22 122h529q18 0 34 6.5t26 14.5t19 18t11.5 14.5t4.5 7.5q1 1 1 3l60 159v0q11 31 -2 54q-14 25 -44 32
q-2 1 -5 1h-683q-4 0 -7 -2l-9 46q-2 31 -22.5 48.5t-42.5 21.5h-3h-111q-8 0 -14 -6t-6 -14t6 -14t14 -6zM265 564h680q12 -4 16.5 -12t-0.5 -22l-59 -157q-4 -6 -9 -13t-19.5 -16.5t-30.5 -9.5h-533h-3l-42 230v0zM406.5 54q-29.5 0 -50 -20.5t-20.5 -49.5t20.5 -49.5
t50 -20.5t50 20.5t20.5 49.5t-20.5 49.5t-50 20.5zM406.5 -42q-10.5 0 -18.5 7.5t-8 18.5t8 18.5t18.5 7.5t18.5 -7.5t8 -18.5t-8 -18.5t-18.5 -7.5zM829 54q-29 0 -50 -20.5t-21 -49.5t21 -49.5t50 -20.5t49.5 20.5t20.5 49.5t-20.5 49.5t-49.5 20.5zM829 -42
q-11 0 -19 7.5t-8 18.5t8 18.5t19 7.5t18.5 -7.5t7.5 -18.5t-7.5 -18.5t-18.5 -7.5z" />
    <glyph glyph-name="heart" unicode="&#xe629;" 
d="M472 8q6 -7 15 -7v0q9 0 15 7l270 302q42 52 42 118q0 77 -56 132t-135 55q-81 0 -136 -56q-56 56 -137 56q-79 0 -135 -55t-56 -132q0 -66 43 -119q2 -3 270 -301zM350 574q75 0 120 -58q6 -7 16.5 -7t16.5 7q45 58 120 58q62 0 106 -43t44 -103q0 -52 -32 -91
l-254 -285q-248 277 -254 284q-33 40 -33 92q0 60 44 103t106 43z" />
    <glyph glyph-name="dingdan" unicode="&#xe783;" 
d="M761 677h-139v-76h94q16 0 33 -8.5t17 -15.5v-600v-5v-9q0 -13 -16 -23.5t-34 -10.5h-300h-38h-82q-16 0 -27.5 10t-11.5 24v604q0 14 11.5 24t27.5 10h113v76h-147q-22 0 -50.5 -22t-28.5 -48v-684q0 -34 26.5 -52t52.5 -18h80h135h284q11 0 23 3t25.5 9.5t22 21.5
t8.5 36v81v17v586q0 25 -29 47.5t-50 22.5zM338 313h125v-17h-125v17zM338 373h125v-17h-125v17zM338 253h350v-18h-350v18zM338 191h350v-17h-350v17zM338 129h350v-17h-350v17zM320 557v-66h387v66q0 8 -5.5 14t-13.5 6h-90v108q0 25 -23 44t-50 19h-18q-27 0 -50 -19
t-23 -44v-108h-94q-8 0 -14 -6t-6 -14zM513.5 678q16.5 0 28 -11.5t11.5 -27.5t-11.5 -27.5t-28 -11.5t-27.5 11.5t-11 27.5t11 27.5t27.5 11.5z" />
    <glyph glyph-name="e625" unicode="&#xe608;" 
d="M776 151h30q33 2 60.5 18t27.5 31q0 2 -9.5 7.5t-31 11t-47.5 5.5v315l29 24v194l-29 25h-30l-29 -25v-194q24 -22 29 -24v-315q-27 0 -48.5 -5t-30.5 -10.5t-9 -8.5q0 -16 24 -32.5t64 -16.5zM688 151q18 -298 29 -339q7 -2 18.5 -5.5t50 -4t78.5 9.5l30 339
q-32 -24 -118 -24q-57 0 -88 24zM864 103q-29 -228 -29 -242q-23 -7 -45 -7t-33 3l-10 4q-24 197 -30 242q3 -2 8 -6.5t7.5 -6t9 -4.5t14 -4t20.5 -2t30 -1q33 0 58 24zM554 237l-13 11v219l-29 19v296l-8 9q-4 3 -9 7q-10 8 -25 8q-13 0 -42 -12q-32 -13 -55 -18
q-40 -10 -71 -28.5t-45.5 -34.5t-24.5 -37t-11 -26.5t-3 -13.5v-145l-29 -24v-219q-17 0 -38 -16.5t-21 -31.5v-364q0 -14 21 -31t38 -17h352q22 0 40.5 16t18.5 32v364q0 15 -14.5 26t-31.5 11zM541 -164h-352v364l59 24v218h29v170q0 31 18 54.5t44 35.5t52 19.5t44 9.5
l18 2v-291h30v-218l58 -24v-364z" />
    <glyph glyph-name="shanchu" unicode="&#xe61e;" 
d="M860.5 515q-8.5 0 -14.5 -6t-6 -15v-554q0 -17 -12 -29t-29 -12h-574q-17 0 -29.5 12t-12.5 29v554q0 9 -6 15t-14 6q-16 0 -20 -16v0l-1 1v-560q0 -34 24.5 -58t58.5 -24h574q34 0 58 24t24 58v554q0 9 -6 15t-14.5 6zM368 22v451q0 9 -6 15t-14.5 6t-14.5 -6t-6 -15
v-451q0 -9 6 -15t14.5 -6t14.5 6t6 15zM697 22v451q0 9 -6 15t-14.5 6t-14.5 -6t-6 -15v-451q0 -9 6 -15t14.5 -6t14.5 6t6 15zM923 658h-237l-76 76q-6 6 -15 6h-1h-164h-0.5h-0.5q-9 0 -15 -6l-76 -76h-237q-8 0 -14 -6t-6 -14.5t6 -14.5t14 -6h247h1q9 0 16 7l75 75h144
l75 -75q7 -7 16 -7h1h247q8 0 14 6t6 14.5t-6 14.5t-14 6zM532 22v451q0 9 -6 15t-14.5 6t-14.5 -6t-6 -15v-451q0 -9 6 -15t14.5 -6t14.5 6t6 15z" />
    <glyph glyph-name="tuijian" unicode="&#xe60e;" 
d="M701 230l-54 164l-50 -133l-82 172l-71 -171l-67 134l-43 -163l-64 48l34 -119h429l45 129zM720 185h-400l-12 38l41 -27l34 133l62 -117l71 157l81 -161l51 116l45 -133l45 39zM315 128q13 -42 17 -55t18 -24t33 -11h282q31 0 42 34l15 56h-407zM654 61h-141.5h-138.5
q-10 0 -16.5 11t-8.5 22l-2 12h341q0 -23 -15 -37q-8 -8 -19 -8zM778 377q14 0 24 -10t10 -24t-10 -24t-24 -10t-24 10t-10 24t10 24t24 10zM512.5 535q16.5 0 28 -11.5t11.5 -28t-11.5 -28t-28 -11.5t-28 11.5t-11.5 28t11.5 28t28 11.5zM259 377q14 0 24 -10t10 -24
t-10 -24t-24 -10t-24 10t-10 24t10 24t24 10z" />
    <glyph glyph-name="collect" unicode="&#xe60f;" 
d="M128 -160v896h768v-896l-384 167zM512 39l356 -156v824h-712v-824zM677 109l-165 78l-165 -78l23 182l-124 133l178 35l88 159l88 -160l178 -34l-124 -134zM512 218l130 -61l-18 143l98 106l-140 27l-70 127l-69 -127l-141 -27l98 -106l-18 -143z" />
    <glyph glyph-name="yaoqinghaoyou2" unicode="&#xe686;" 
d="M512 798q-102 0 -194.5 -39.5t-159.5 -106.5t-106.5 -160t-39.5 -194.5t39.5 -194t106.5 -159.5t159.5 -106.5t194.5 -39.5t194.5 39.5t159.5 106.5t106.5 159.5t39.5 194t-39.5 194.5t-106.5 160t-159.5 106.5t-194.5 39.5zM512 -171q-95 0 -182 37t-150 100t-100 150
t-37 182t37 182t100 150t150 100t182 37t182 -37t150 -100t100 -150t37 -182t-37 -182t-100 -150t-150 -100t-182 -37zM285 353q-1 7 -6.5 10t-12 2t-9.5 -6.5t-2 -12.5l42 -181l-4 -116q0 -7 4.5 -11.5t10.5 -4.5h1q6 0 10.5 4.5t4.5 10.5l4 118q0 2 -1 4zM656 171l-42 186
q-2 12 -15 12v0q-12 0 -15 -12l-43 -185v-4v-138q0 -7 4.5 -11.5t10.5 -4.5t11 4.5t5 11.5v136l27 118l26 -118l3 -137q0 -6 4.5 -10.5t10.5 -4.5v0q7 0 11.5 5t4.5 11l-3 138v3zM802.5 554q-6.5 0 -11 -4.5t-4.5 -11.5v-85l-38 -74q-1 -2 -1 -4l-40 -207v-3v-135
q0 -7 4.5 -11.5t11 -4.5t11 4.5t4.5 11.5v133l39 204l38 75q2 4 2 7v89q0 7 -4.5 11.5t-11 4.5zM740 451q0 25 -18 43t-43 18t-42.5 -18t-17.5 -43v-5l-47 -17q4 11 4 22q0 25 -17.5 43t-42.5 18t-43 -18t-18 -43q0 -12 5 -23l-48 16v7q0 25 -17.5 43t-42.5 18t-43 -18
t-18 -43q0 -3 1 -8l-74 -41q-14 -8 -6 -21q4 -8 13 -8q4 0 8 1l71 40q19 -23 48 -23q10 0 19 3l43 -46v-0.5v-0.5l-35 -173v-3v-126q0 -7 4.5 -11.5t11 -4.5t11 4.5t4.5 11.5v124l25 123l27 -128l-3 -131q0 -6 4 -10.5t11 -4.5v0q7 0 11.5 4t4.5 11l3 132v3l-39 180
q-1 4 -4 7l-53 57q2 1 3 3l112 -37h4.5t5.5 1l108 38q18 -26 49 -26q25 0 43 17.5t18 42.5zM322 451.5q0 12.5 9 21t21 8.5t20.5 -8.5t8.5 -21t-8.5 -21t-20.5 -8.5t-21 8.5t-9 21zM515.5 481q12.5 0 21 -8.5t8.5 -21t-8.5 -21t-21 -8.5t-21 8.5t-8.5 21t8.5 21t21 8.5z
M679 422q-12 0 -20.5 8.5t-8.5 21t8.5 21t20.5 8.5t21 -8.5t9 -21t-9 -21t-21 -8.5z" />
    <glyph glyph-name="lanmeiwodeshoucang" unicode="&#xe65c;" 
d="M512 812q-139 0 -257 -68.5t-186.5 -186.5t-68.5 -257t68.5 -257t186.5 -186.5t257 -68.5t257 68.5t186.5 186.5t68.5 257t-68.5 257t-186.5 186.5t-257 68.5zM512 -184q-98 0 -187.5 38.5t-154.5 103.5t-103.5 154.5t-38.5 187.5t38.5 187.5t103.5 154.5t154.5 103.5
t187.5 38.5t187.5 -38.5t154.5 -103.5t103.5 -154.5t38.5 -187.5t-38.5 -187.5t-103.5 -154.5t-154.5 -103.5t-187.5 -38.5zM641 564q-57 0 -125 -71l-4 -4l-4 4q-70 71 -127 71q-69 0 -112 -45q-50 -50 -50 -119t50 -119q12 -13 105.5 -116.5t102.5 -114.5q15 -14 35 -14
t35 14q9 10 61 66.5t99.5 107.5t47.5 52q50 50 50 119t-50 119q-48 50 -114 50zM737 295q-9 -9 -208 -225q-8 -7 -17 -7t-15 7q-23 25 -109.5 121t-99.5 109q-42 42 -42 101t42 101q37 37 93 37q45 0 109 -62l23 -22l23 23q63 63 108 63q54 0 95 -41q42 -43 42 -101
q-4 -65 -44 -104z" />
    <glyph glyph-name="nvzhuang" unicode="&#xe62b;" 
d="M839 46q-6 45 -35 103q-24 51 -59 93q-44 53 -102 90q-11 10 -18 25q-6 11 -7 24v0v0v1q-3 21 8 44q24 55 41 110t16 77l-1 15l-102 26l-16 4l-7 -16q-8 -17 -22.5 -34.5t-28.5 -17.5h-1q-25 0 -55 54l-8 15l-117 -35l1 -16q2 -70 37 -145q27 -58 28 -85q2 -34 -33 -71
q-12 -13 -43 -39q-56 -47 -80 -82q-41 -58 -51 -141v-1v-1q0 -19 17 -35q37 -34 137 -24q22 2 48 -11q53 -28 126 -28q64 0 115 43q43 19 122 -7q34 -11 59 5q27 17 32 55v2zM368 594l55 16q39 -63 84 -61t79 61l55 -14q-12 -63 -52 -153q-10 -22 -12 -43
q-35 -27 -77.5 -26.5t-69.5 28.5q-6 27 -30 79q-25 53 -32 113zM786 20q-9 -5 -25 0q-63 21 -114 15q-27 -3 -42 -12l-2 -1l-2 -2l-12 -9t-31 -15.5t-46 -9.5q-63 0 -107 23q-32 16 -58 16h-13q-67 -7 -96 8q-10 4 -13 10q5 38 16 68t29.5 54t32 37t38.5 35q33 27 47 42
q34 36 42 72q32 -19 71 -19q3 0 6 1q40 1 75 21q2 -8 6 -15q12 -25 30 -39l1 -1h1q53 -34 92 -82q33 -39 55 -84q23 -48 31 -90q-3 -17 -12 -23z" />
    <glyph glyph-name="daifahuo" unicode="&#xe646;" horiz-adv-x="1026" 
d="M793 549h34q7 0 11 -6l152 -190q3 -4 3 -9v-233q0 -18 -13 -30.5t-30 -12.5h-53q-5 -41 -34.5 -68.5t-69.5 -30.5v28q32 3 54.5 27t22.5 57t-22.5 57.5t-54.5 27.5v28q40 -3 69.5 -30.5t34.5 -67.5h53q6 0 11 4q4 5 4 11v169h-172v28h172v31l-77 97h-95v28h73l-45 57h-28
v28zM344 694q26 -14 47 -35v0q10 -10 19 -22h154q24 0 40 -16v0q16 -16 16 -39v-33h173v-28h-173v-425h53q6 42 38 70t74 28h8v-28h-8q-35 0 -60 -24.5t-25 -60t25 -60t60 -24.5h8v-28h-8q-42 0 -74.5 28.5t-37.5 70.5h-281q-6 -50 -48 -79v37q21 24 21 55.5t-21 55.5v37
q42 -29 48 -78h200v486q0 11 -8 19v0q-8 8 -20 8h-136q25 -46 25 -99q0 -87 -62 -149q-21 -21 -46 -35v32q15 11 27 23q53 54 53 129.5t-53 128.5v0q-13 12 -28 23v32zM793 464h-33q-18 0 -31.5 -13t-13.5 -32v-95q0 -18 13.5 -31t31.5 -13h33v28h-33q-7 0 -12 4.5t-5 11.5
v95q0 7 5 12t12 5h33v28zM243 721q54 0 101 -27v-32q-46 31 -101 31q-18 0 -34 -3v28q17 3 34 3v0v0zM344 -11q-29 -20 -64 -20q-40 0 -71 25v41q25 -39 71 -39q39 0 64 30v-37zM344 358v-32q-47 -26 -101 -26q-17 0 -34 2v28q17 -3 34 -3q55 0 101 32v0v-1zM344 174v-37
q-25 29 -64 29q-46 0 -71 -38v41q31 25 71 25q35 0 64 -20v0v0zM209 464v36l20 17v119q0 10 7 14t13.5 0t6.5 -14v-126q0 -6 -5 -11zM209 -6q-35 29 -41 74h-43q-23 0 -39.5 16.5t-16.5 39.5v268q-37 53 -37 118q0 87 62 149q48 48 115 59v-28q-55 -11 -96 -51
q-53 -53 -53 -129t53 -129v0q41 -40 96 -51v-28q-65 11 -113 57v-235q0 -12 8.5 -20t19.5 -8h44q6 44 41 73v-41q-14 -21 -14 -46.5t14 -46.5v-41zM209 500l-22 -18l-19 -17q-8 -6 -6 -14t9 -10t14 3l24 20v36zM209 500z" />
    <glyph glyph-name="jiantou" unicode="&#xe609;" 
d="M302 743q-5 4 -12 4q-8 0 -13.5 -5.5t-5.5 -13.5q0 -6 5 -12v0v0l107.5 -104t214.5 -208l107 -104q-428 -416 -429 -416v0v0q-5 -6 -5 -13t5.5 -12.5t13.5 -5.5q7 0 12 4l443 429q13 15 0 28q-442 428 -443 429v0v0v0z" />
    <glyph glyph-name="arrowDown" unicode="&#xe662;" 
d="M528 145l438 431q5 5 5 12.5t-5 12.5t-12 5t-12 -5l-426 -419l-425 424q-5 5 -12 5t-12 -5t-5 -12t5 -12l437 -437q5 -5 12 -5t12 5z" />
    <glyph glyph-name="huizhanghuiyuan" unicode="&#xe65f;" 
d="M496.5 373q-69.5 0 -119 49.5t-49.5 119t49.5 119t119 49.5t119 -49.5t49.5 -119t-49.5 -119t-119 -49.5zM496.5 682q-58.5 0 -99.5 -41.5t-41 -99.5t41 -99t99.5 -41t99.5 41t41 99t-41 99.5t-99.5 41.5zM407 545q-6 0 -10 4t-4 10q0 10 4 23q3 13 17 10q5 -2 8 -7
t2 -10q-3 -10 -3 -16t-4 -10t-10 -4zM496 438q-33 0 -60 19.5t-38 51.5q-4 13 9.5 17.5t17.5 -8.5q8 -24 27.5 -38t43.5 -14q6 0 10 -4t4 -10t-4 -10t-10 -4zM568 211q-19 0 -35 11l-18 12q-7 4 -18.5 4t-18.5 -4l-18 -12q-16 -11 -35 -11q-39 0 -57 35l-10 20
q-3 7 -12.5 12.5t-17.5 5.5l-23 -1q-30 -2 -50 19q-18 20 -17 48l1 22q0 8 -5.5 17.5t-12.5 13.5l-20 10q-25 13 -32.5 40t8.5 52l12 18q4 7 4 18.5t-4 17.5l-12 19q-16 24 -8.5 51t32.5 40l20 11q7 3 12.5 13t5.5 18l-1 22q-1 28 17 47q20 21 50 19l22 -1v0q9 0 18.5 5.5
t12.5 12.5l10 20q18 35 57 35q19 0 35 -10l18 -12q7 -4 18.5 -4t18.5 4l18 12q16 10 35 10q38 0 57 -34l10 -20q3 -7 12.5 -12.5t17.5 -5.5l23 1q30 1 50 -20q18 -19 17 -47l-1 -22q0 -8 5.5 -18t12.5 -14l20 -10q25 -13 32.5 -40t-8.5 -51l-12 -19q-4 -6 -4 -17.5t4 -18.5
l12 -18q16 -25 8.5 -52t-32.5 -40l-20 -10q-7 -4 -12.5 -13.5t-5.5 -17.5l1 -22q1 -28 -17.5 -47.5t-46.5 -19.5v0l-1 -1.5t-2 -1.5l-22 -1v0q-9 0 -18.5 -4.5t-12.5 -11.5l-10 -18q-18 -34 -57 -34zM496.5 294q27.5 0 48.5 -13l18 -12q3 -2 5 -2q4 0 7 5l10 19q11 22 35 35
t49 12l22 -3v0q2 0 6 4q2 3 2 7l-1 23q-1 24 12.5 48t35.5 36l20 10q3 2 4 5t-1 6l-12 19q-13 21 -13 48.5t13 48.5l12 18q2 4 1 7t-4 5l-20 10q-22 11 -35.5 35t-12.5 48l1 23q0 3 -2 5.5t-6 2.5l-22 -1q-25 -1 -49 12.5t-35 35.5l-10 20q-3 4 -7 4q-2 0 -5 -1l-18 -12
q-20 -13 -48.5 -13t-48.5 13l-19 12q-2 1 -4 1q-4 0 -7 -4l-10 -20q-11 -22 -35 -36t-49 -13h-22v0q-5 0 -6 -1q-2 -3 -2 -6l1 -22q1 -24 -13 -48t-35 -35l-20 -11q-3 -1 -4 -4.5t1 -6.5l12 -18q13 -21 13 -48.5t-13 -48.5l-12 -19q-2 -3 -1 -6t4 -5l20 -10q21 -11 35 -35
t13 -49l-1 -22q0 -4 2 -6t6 -2l22 1q25 1 49 -13t35 -36l10 -19q3 -5 7 -5q2 0 4 2l19 12q21 13 48.5 13zM404 6q-10 0 -17 5l-64 47l-75 -21q-15 -4 -26.5 6t-9.5 26l46 251q2 13 14.5 19.5t25.5 0.5q2 -1 4 -1l22 1q25 1 49 -13t35 -36l10 -19q4 -7 11 -4q15 9 29 -1.5
t11 -27.5l-38 -210q-3 -15 -17 -21q-5 -2 -10 -2zM329 116q9 0 16 -5l39 -28l24 131q-27 7 -40 32l-10 20q-3 7 -12.5 12.5t-17.5 5.5l-20 -1l-32 -180l45 12q4 1 8 1zM527 -22q-5 0 -10 2q-14 6 -17 21l-47 258q-2 11 4 20.5t17 11.5q40 9 71 -10l18 -12q3 -2 5 -2q4 0 7 5
l10 19q11 22 35 35t49 12l22 -3v0q5 0 7 6q8 21 29 19t25 -22l51 -278q1 -5 1 -7q0 -12 -8 -19t-20 -7v0q-1 0 -3.5 -0.5t-4.5 -0.5l-122 33l-102 -75q-8 -6 -17 -6zM515 233l32 -178l77 56q11 8 24 4l92 -25l-35 194q-1 0 -6 -2t-8 -2l-25 -1v0q-9 0 -18.5 -4.5
t-12.5 -11.5l-10 -18q-18 -34 -57 -34q-18 0 -35 10z" />
    <glyph glyph-name="pingjia" unicode="&#xe6ae;" horiz-adv-x="1026" 
d="M536 122l-60 2h-1q-103 12 -184 69q-88 62 -121 158q-18 51 -21.5 121t1.5 126q2 50 2 75q0 23 16.5 39.5t39.5 16.5q62 -2 126 -31q17 44 48 79q71 80 127 80q37 0 79 -32q31 -23 55 -54q28 -36 42 -76q76 32 137 34h1q22 0 39 -17q16 -16 16 -39q0 -46 -2 -134v-30v-21
q-1 -85 -15 -127q-35 -102 -124 -168t-200 -71h-1v0zM480 176l56 -2q94 4 170 60.5t106 143.5q11 34 12 110v22v30q2 89 2 133q0 1 -1 3q-1 1 -2 1q-56 -2 -144 -42l-29 -13l-7 32q-10 46 -41 85q-20 26 -47 46.5t-46 20.5q-33 0 -88 -63q-33 -37 -47 -88l-8 -31l-28 15
q-73 36 -131 38v0q-3 0 -3 -4q0 -24 -2 -77q-5 -53 -2 -118t19 -111q26 -76 97 -128t164 -63v0zM394 -46q-15 0 -23 13q-72 127 -154 159q-45 17 -98 4t-69 -51q-4 -10 -14 -14t-20 0t-14 14t0 20q26 62 105 81q68 17 128 -6q56 -22 107 -78q40 -42 74 -103q6 -10 3 -20
t-12 -16q-6 -3 -13 -3v0zM632 -46q-7 0 -13 3q-9 6 -12 16t2 20q35 61 74 103q52 56 107 78q61 23 129 6q79 -19 105 -81q4 -10 0 -20t-14 -14t-20 0t-14 14q-16 38 -70 51q-52 13 -97 -4q-82 -32 -155 -159q-7 -13 -22 -13v0zM513 -89q-11 0 -18.5 7.5t-7.5 17.5v212
q0 11 7.5 18.5t18.5 7.5t18.5 -7.5t7.5 -18.5v-212q0 -10 -7.5 -17.5t-18.5 -7.5v0z" />
    <glyph glyph-name="mima" unicode="&#xe602;" 
d="M867 525q-29 69 -83 123t-123 83q-72 31 -151 31t-151 -31q-70 -29 -123.5 -83t-83.5 -123q-30 -72 -30 -151t30 -151q30 -70 83.5 -123.5t123.5 -83.5q72 -30 151 -30t151 30q69 30 123 83.5t83 123.5q31 72 31 151t-31 151zM755.5 128.5q-101.5 -101.5 -245.5 -101.5
t-245.5 101.5t-101.5 245.5t101.5 245.5t245.5 101.5t245.5 -101.5t101.5 -245.5t-101.5 -245.5zM625 378q-50 0 -87 -33l-88 89l88 88q6 6 6 14.5t-6 14.5t-14 6t-14 -6l-89 -89l-59 60l106 106q6 6 6 14.5t-6 14.5t-14.5 6t-14.5 -6l-106 -106l-11 11q-6 6 -14.5 6
t-14.5 -6t-6 -14.5t6 -14.5l219 -220q-17 -30 -17 -64q0 -54 38 -92t91.5 -38t91.5 38t38 91.5t-38 91.5t-91 38zM624.5 160q-36.5 0 -62.5 26t-26 62.5t26 62.5t62.5 26t62.5 -26t26 -62.5t-26 -62.5t-62.5 -26z" />
    <glyph glyph-name="neiyi" unicode="&#xe67a;" 
d="M252 379v0l1 -1v0h1q4 -3 9 -3h498q5 0 9 3h1q32 19 51 51.5t19 70.5q0 52 -34 91.5t-84 47.5v196q0 8 -5.5 13.5t-13.5 5.5t-13.5 -5.5t-5.5 -13.5v-194q-49 -5 -84 -39.5t-41 -82.5h-96q-6 47 -39.5 81t-81.5 40v195q0 8 -5.5 13.5t-13 5.5t-13 -5.5t-5.5 -13.5v-195
q-52 -7 -87.5 -47t-35.5 -93q0 -37 18.5 -69.5t50.5 -51.5zM324 603v0h1q42 0 72.5 -30t30.5 -73q0 -8 5.5 -13.5t13.5 -5.5h130q8 0 13.5 5.5t5.5 13.5q0 43 30.5 73t73 30t73 -30t30.5 -73q0 -26 -13 -49t-34 -38h-488q-21 15 -34 38t-13 49q0 43 30.5 73t72.5 30z
M782 240h-540q-8 0 -13.5 -5.5t-5.5 -13.5v-92q0 -8 5.5 -13.5t13.5 -5.5q74 0 127 -52.5t53 -127.5q0 -8 5.5 -13.5t13.5 -5.5h142q8 0 13.5 5.5t5.5 13.5q0 75 53 127.5t127 52.5q8 0 13.5 5.5t5.5 13.5v92q0 8 -5.5 13.5t-13.5 5.5zM763 147q-79 -7 -135 -63t-63 -135
h-106q-7 79 -63 135t-135 63v56h502v-56z" />
    <glyph glyph-name="fenxiao" unicode="&#xe707;" 
d="M847 228l-151 120q-1 1 -3 0.5t-2 -1.5v-81h-112q-15 0 -20 -14q-1 -1 -1 -3v-50q0 -1 1 -2q5 -14 20 -14h112v-81q0 -1 2 -1.5t3 0.5l151 120q2 1 2 3t-2 4v0v0zM643 362q-23 13 -45 22q37 25 58.5 65t21.5 87q0 77 -54.5 131.5t-132.5 54.5q-76 0 -130.5 -54.5
t-54.5 -130.5q0 -46 21.5 -86.5t58.5 -65.5q-83 -33 -134 -106.5t-51 -164.5h52q0 91 60.5 158.5t149.5 78.5h3t5.5 0.5t7.5 0.5h9.5h11t12 -0.5t11.5 -0.5h3q30 -5 60 -17q26 18 57 28v0v0zM492 398q-59 0 -99.5 40.5t-40.5 98.5t41 99t99 41t98.5 -41t40.5 -99
t-40.5 -98.5t-98.5 -40.5v0v0zM492 398zM512 896q-139 0 -257 -68.5t-186.5 -186.5t-68.5 -257t68.5 -257t186.5 -186.5t257 -68.5t257 68.5t186.5 186.5t68.5 257t-68.5 257t-186.5 186.5t-257 68.5v0zM512 -79q-94 0 -179.5 37t-147.5 99t-99 147.5t-37 179.5t37 179.5
t99 147.5t147.5 99t179.5 37t180 -37t147.5 -99t98.5 -147.5t37 -179.5t-37 -179.5t-99 -147.5t-147.5 -99t-179.5 -37v0zM512 -79z" />
    <glyph glyph-name="sousuo" unicode="&#xe606;" 
d="M937 -22l-245 244q79 95 79 219q0 93 -46 171.5t-124.5 124t-171.5 45.5t-171.5 -45.5t-124.5 -124t-46 -171.5t46 -171.5t124.5 -124.5t171.5 -46q123 0 218 79l245 -245zM123 440.5q0 126.5 90 216t216 89.5t216 -89.5t90 -216t-90 -216t-216 -89.5t-216 89.5t-90 216z
" />
    <glyph glyph-name="dizhi" unicode="&#xe63c;" 
d="M512 -53q-182 0 -312 51q-67 26 -103 61.5t-36 75.5q0 60 75 107q68 41 179 63q7 2 14 -2.5t8.5 -12.5t-3 -14.5t-12.5 -8.5q-99 -20 -160.5 -56t-61.5 -76q0 -27 30 -53.5t84 -47.5q123 -48 298 -48t298 48q54 21 84 47.5t30 53.5q0 40 -62.5 76.5t-163.5 56.5
q-8 1 -12.5 8t-3 14.5t8 12.5t14.5 3q113 -22 181 -64q77 -47 77 -107q0 -40 -36 -75.5t-103 -61.5q-130 -51 -312 -51zM512 128q-9 0 -15 7q-112 140 -175 278q-32 68 -42 111q-9 31 -9 64q0 100 70.5 170.5t170.5 70.5q8 0 13.5 -6t5.5 -14t-5.5 -13.5t-13.5 -5.5
q-83 0 -142.5 -59t-59.5 -143q0 -28 8 -54v-1q9 -39 40 -106q61 -132 169 -268q5 -6 4 -14t-7 -13q-5 -4 -12 -4zM516 128q-7 0 -12 4q-6 5 -7 13t4 14q48 60 87 121.5t60.5 102.5t37 79.5t19.5 51.5t5 19v1q8 26 8 54q0 84 -59.5 143t-142.5 59q-8 0 -14 5.5t-6 13.5t6 14
t14 6q100 0 170.5 -70.5t70.5 -170.5q0 -33 -9 -64q-11 -43 -42 -111q-63 -138 -175 -278q-6 -7 -15 -7zM512 462q-48 0 -81.5 34t-33.5 82t33.5 81.5t81.5 33.5t81.5 -33.5t33.5 -81.5t-33.5 -82t-81.5 -34zM512 655q-32 0 -54.5 -22.5t-22.5 -54.5t22.5 -54.5t54.5 -22.5
t54.5 22.5t22.5 54.5t-22.5 54.5t-54.5 22.5z" />
    <glyph glyph-name="jifen" unicode="&#xe6e5;" 
d="M512 -107q-100 0 -191 39t-156.5 104.5t-104.5 156.5t-39 191t39 191t104.5 156.5t156.5 104.5t191 39t191 -39t156.5 -104.5t104.5 -156.5t39 -191t-39 -191t-104.5 -156.5t-156.5 -104.5t-191 -39zM512 854q-95 0 -182 -37.5t-150 -100.5t-100.5 -150t-37.5 -182
t37.5 -182t100.5 -150t150 -100t182 -37t182 37t150 100t100 150t37 182t-37 182t-100 150t-150 100.5t-182 37.5zM349 166h-139v235h139v-235zM232 188h95v192h-95v-192zM670 590h-63q-15 0 -26 11t-11 26.5t11 26t26 10.5h63q16 0 27 -10.5t11 -26t-11 -26.5t-27 -11z
M607 643q-6 0 -10.5 -5t-4.5 -11t4.5 -11t10.5 -5h63q7 0 11.5 5t4.5 11t-4.5 11t-11.5 5h-63zM686 381h-63q-16 0 -27 11t-11 26.5t11 26.5t27 11h63q15 0 26 -11t11 -26.5t-11 -26.5t-26 -11zM623 434q-7 0 -11.5 -4.5t-4.5 -11t4.5 -11t11.5 -4.5h63q6 0 10.5 4.5t4.5 11
t-4.5 11t-10.5 4.5h-63zM536 482h-63q-16 0 -26.5 11t-10.5 26.5t10.5 26.5t26.5 11h63q15 0 26 -11t11 -26.5t-11 -26.5t-26 -11zM473 535q-6 0 -11 -4.5t-5 -11t5 -11t11 -4.5h63q6 0 10.5 4.5t4.5 11t-4.5 11t-10.5 4.5h-63zM563 113q-30 0 -71 14t-79.5 35t-56.5 31.5
t-29 18.5l12 18q15 -10 42.5 -26.5t86.5 -42.5t95 -26q10 0 32.5 5.5t57 18t78 40t80.5 64.5l2 2q5 12 1 26q-2 9 -7 12q-20 10 -48 -1l-103 -71h-206v21h199l101 70q37 16 67 0q15 -8 19 -28t-1 -32q-3 -13 -10 -17q-39 -38 -84 -66t-81 -41.5t-60.5 -19t-36.5 -5.5z
M646 247q-1 5 -3.5 11.5t-13 18.5t-23.5 14q-32 0 -85 -5h-4l-3 2q-62 41 -85 50q-25 8 -95 4l-1 22q74 4 103 -5q26 -10 87 -51q58 5 85 5q12 -2 23 -9t17 -14.5t11 -17t6.5 -13.5t2.5 -6z" />
    <glyph glyph-name="shishang" unicode="&#xe603;" 
d="M785 491q21 10 21 33v47q0 15 -10.5 26t-25.5 11h-40v56h55q8 -12 28 -19.5t45 -7.5q32 0 54.5 11.5t22.5 28.5t-22.5 28.5t-54.5 11.5q-25 0 -45 -7.5t-28 -19.5h-55v24q0 15 -10.5 26t-25.5 11h-12q-15 0 -26 -11t-11 -26v-24h-78q-5 0 -9 -4t-4 -9.5t4 -9t9 -3.5h78
v-56h-39q-15 0 -26 -11t-11 -26v-47q0 -23 21 -33q-43 -18 -77 -52q-52 -52 -67 -124l-51 89h-262l-70 -121l201 -252l177 222q4 -95 72 -163q72 -73 174.5 -73t175 72.5t72.5 175t-73 174.5q-33 34 -77 52zM237 377h52l27 -82h-107zM148 377h61l-27 -82h-81zM108 269h74
l50 -156zM209 269h108l-53 -171zM297 114l47 155h76zM344 295l-27 82h63l47 -82h-83zM672 714q0 10 10 10h12q10 0 10 -10v-24h-32v24zM672 664h32v-56h-32v56zM595 571q0 5 3.5 8t7.5 3h39h85h40q4 0 7 -3t3 -8v-47q0 -4 -3 -7t-7 -3h-164q-4 0 -7.5 3t-3.5 7v47zM687.5 44
q-91.5 0 -156 64.5t-64.5 156t64.5 156t156 64.5t156.5 -64.5t65 -156t-65 -156t-156.5 -64.5z" />
    <glyph glyph-name="nvxie" unicode="&#xe677;" 
d="M429 -20q-88 0 -203.5 12t-145.5 28q-10 5 -12 16q-6 16 -4 42.5t9 52.5t28.5 53t54.5 44v0q70 37 146 43q22 2 33 4.5t28 13.5t38 34q25 28 85 95q71 80 112.5 125.5t104 109t103.5 96.5q9 7 21 5q18 -3 37.5 -13t40 -29.5t33.5 -47.5t19.5 -67.5t-2.5 -90.5
q-11 -62 -37 -130q-19 -52 -23 -87q-12 -115 -7 -276q1 -10 -6.5 -17.5t-17.5 -7.5l-89 -2q-11 0 -19 7q-7 7 -7 18v350q0 -1 -4.5 -3.5t-11.5 -7.5t-13 -10q-18 -16 -43.5 -54.5t-41 -68t-43.5 -82.5q-44 -85 -64.5 -115.5t-39.5 -35.5q-14 -4 -59 -4zM115 60
q47 -15 187 -24.5t172 -3.5q14 11 74 127q29 56 46 87.5t44 72t49 59.5q47 41 80 35q21 -4 29 -21q3 -5 3 -11v-345l39 1q-4 154 7 258q4 41 26 98q25 64 34 121q4 35 4 61t-7.5 47t-15.5 34t-20.5 23t-21 15t-16.5 8q-40 -33 -99.5 -94t-98.5 -104t-106 -119
q-61 -68 -86 -95q-27 -30 -52 -45t-39.5 -18.5t-40.5 -5.5q-66 -5 -127 -37v0q-23 -12 -38 -30t-19.5 -35t-6.5 -33.5t0 -25.5z" />
    <glyph glyph-name="bianji" unicode="&#xe601;" 
d="M212 196l-84 -168q-5 -15 4.5 -24.5t23.5 -2.5l168 83q12 2 20 10l298 298q12 12 12 27.5t-12 27.5l-68 68q-11 11 -27 11t-27 -11l-299 -299q-7 -8 -9 -20zM534 474q5 5 13 5t14 -5l41 -41q5 -6 5 -13.5t-5 -13.5l-41 -41l-67 69zM465 405l69 -67l-218 -217
q-37 38 -67 68zM283 100l-104 -63q-7 -3 -12 2t-2 12l63 104zM635 313v-309q0 -16 -13 -27.5t-30 -11.5h-460q-16 0 -27.5 11.5t-11.5 26.5v462q0 16 12 28.5t27 12.5h309v39h-309q-31 0 -54 -24t-23 -56v-462q0 -31 22.5 -53.5t54.5 -22.5h460q33 0 57 22.5t24 54.5v309
h-38z" />
    <glyph glyph-name="jujia" unicode="&#xe7b1;" 
d="M-474 -86zM509 72q-11 0 -18 -7.5t-7 -17.5v-82q0 -10 7.5 -17.5t17.5 -7.5t17.5 7.5t7.5 17.5v82q0 10 -7 17.5t-18 7.5zM734 135q-7 7 -17.5 7t-18 -7.5t-7.5 -18t8 -18.5l57 -57q8 -8 18.5 -8t17.5 8q8 7 8 17.5t-8 17.5zM293 142q-10 0 -18 -7l-58 -58
q-7 -8 -7 -18.5t7.5 -18t18 -7.5t17.5 7l58 58q7 7 7 18t-7 18q-7 8 -18 8zM916 345q-1 76 -30 146.5t-82 126.5q-52 55 -120.5 87.5t-144.5 38.5q-4 0 -4 5v62q0 11 -7.5 18.5t-18 7.5t-18 -7.5t-7.5 -18.5v-62q0 -5 -5 -5q-75 -6 -143.5 -38.5t-121.5 -87.5
q-53 -56 -81.5 -126.5t-30.5 -146.5v-1v-62h200q4 0 5 -4q18 -70 74.5 -113.5t128.5 -43.5q71 0 127.5 43.5t74.5 113.5q2 4 5 4h200v62q-1 0 -1 1zM654 274q-17 -45 -57 -72.5t-88 -27.5t-88 27.5t-57 72.5q-1 3 0 5q2 2 5 2h281q3 0 4 -2t0 -5zM856 341q-1 -1 -4 -1h-686
q-2 0 -4 1q-1 2 -1 4q3 141 104 241q102 99 244 99t244 -99q101 -99 105 -241z" />
    <glyph glyph-name="huiyuanzhongxin" unicode="&#xe614;" 
d="M512 765q92 0 157 -65t65 -156.5t-65 -156.5q-15 -15 -33 -27q70 -27 123 -80q49 -48 76 -112t27 -135q0 -13 -9 -21.5t-21.5 -8.5t-21 8.5t-8.5 21.5q0 120 -85 204.5t-205 84.5v0v0v0q-120 0 -205 -84.5t-85 -204.5q0 -13 -8.5 -21.5t-21 -8.5t-21.5 8.5t-9 21.5
q0 71 27 135t76 112q53 53 123 80q-18 12 -33 27q-65 65 -65 156.5t65 156.5t157 65v0v0zM626 658q-47 47 -114 47t-114 -47.5t-47 -114t47 -113.5q47 -48 114 -48v0v0v0q67 0 114 48q47 47 47 113.5t-47 114.5v0zM626 658z" />
    <glyph glyph-name="yingyangbaojian" unicode="&#xe63b;" 
d="M540 -43l-2 14q-8 49 -11 73t-1.5 56t10.5 59q6 21 65 195q4 9 5 15q10 29 39 29q20 0 31 -15q10 -14 5 -32q-6 -23 -31 -110q8 -2 16 -2q19 0 37 17l75 72l21 125q2 11 10.5 18t19.5 7h1l7 46q2 11 10.5 18.5t20.5 7.5q2 0 5 -1v0h2l1 3q1 11 10 19t21 8q2 0 4 -1
q10 -1 17 -8q9 4 18 3q13 -2 20.5 -12t6.5 -22q-19 -143 -22 -164q-1 -7 -3 -18q-4 -27 -7 -40.5t-9.5 -30.5t-16.5 -27l-190 -182q-11 -12 -16.5 -26.5t-6.5 -25.5t-1 -36q1 -16 0 -25v-7h-161zM645 384q-19 0 -25 -19q-2 -4 -5 -15q-60 -175 -66 -195q-8 -26 -9 -57
t1.5 -54t10.5 -71v-2h135v18q0 25 1 37.5t7.5 30t20.5 30.5l189 182q9 8 14.5 23.5t8 28.5t6.5 38l3 18q3 16 22 163q1 7 -3.5 12.5t-11.5 6.5v0q-7 1 -13 -4l-6 -5l-4 7q-5 6 -12 7q-1 1 -2 0q-15 0 -17 -14l-3 -23l-10 5q-3 3 -6 3q-2 1 -3 1q-14 0 -17 -14l-10 -60l-7 1
q-1 0 -2 1v0h-3q-14 0 -16 -14l-21 -128l-79 -77q-22 -20 -47 -20q-13 0 -27 6l-6 2l2 6q23 80 33 116q3 11 -3 19q-7 10 -20 10zM485 -43h-162v7v25q1 24 0 35.5t-6.5 26t-17.5 26.5l-189 182q-10 10 -17 26.5t-9.5 30t-6.5 40.5q-2 12 -3 19q-3 20 -22 164q-2 12 6 22
t21 12q9 1 18 -3q7 7 17 8q2 1 4 1q12 0 20.5 -8t10.5 -19v-3h3v0q2 1 5 1q11 0 19.5 -7.5t10.5 -18.5l8 -46q12 0 20.5 -7t10.5 -18l20 -125l76 -72q17 -17 37 -17q7 0 16 2q-25 87 -32 110q-5 18 6 32q11 15 31 15q29 0 38 -29q54 -155 71 -210q9 -27 10 -59t-1.5 -55.5
t-10.5 -73.5zM337 -29h136v2q8 48 10.5 71.5t1.5 54t-9 56.5q-17 54 -71 210q-7 19 -25 19q-13 0 -20 -10q-6 -8 -3 -19q6 -21 33 -116l2 -6l-6 -2q-14 -6 -27 -6q-25 0 -47 20l-79 77l-21 128q-2 14 -17 14h-2v0q-1 -1 -2 -1l-7 -1l-10 60q-3 13 -17 13h-3q-3 0 -6 -2
l-10 -7l-3 24q-2 14 -17 14h-2q-8 -1 -12 -7l-4 -7l-6 5q-6 5 -13 4v0q-7 -1 -11.5 -6.5t-3.5 -11.5q18 -141 22 -164q1 -6 3 -19q4 -25 6.5 -37.5t8 -28t13.5 -23.5l190 -182q20 -19 24.5 -40t3.5 -58v-18zM515 212h-5l-2 1q-6 4 -16 10l-2 2l-1 2q-30 89 -42 124l-8 25
q-7 20 -23 31.5t-36 11.5q-31 0 -49 -23q-6 -8 -9 -18l-3 -12l-9 10q-104 117 -105 231q-1 57 31 101q31 45 86 64q23 8 48 8q47 0 90 -26q33 -21 53 -52q20 33 58.5 55.5t83.5 22.5q25 0 49 -8q54 -19 85 -64q32 -44 31 -101q-1 -114 -106 -232l-8 -9l-4 12q-3 10 -9 18
q-18 23 -48 23q-20 0 -36 -11.5t-23 -31.5l-9 -28q-5 -13 -16 -46q-18 -52 -26 -75v-2l-2 -2q-10 -6 -17 -10zM502 234q5 -4 10 -7q5 3 11 7q8 23 25 73q11 32 15 46l10 28q8 24 27.5 38t44.5 14q37 0 59 -29q4 -5 7 -11q94 110 95 214q0 53 -28.5 94t-78.5 58q-21 7 -44 7
q-44 0 -82 -24t-54 -57l-6 -12l-7 12q-16 33 -54 57t-82 24q-23 0 -44 -7q-50 -17 -78.5 -58t-28.5 -94q1 -104 94 -214q3 6 7 11q22 29 60 29q24 0 44 -14.5t28 -38.5l9 -25q11 -34 41 -121z" />
    <glyph glyph-name="icon1" unicode="&#xe61c;" 
d="M511 896q-104 0 -198.5 -40.5t-163 -109t-109 -163.5t-40.5 -199t40.5 -199t109 -163.5t163.5 -109t199 -40.5t199 40.5t163.5 109t109 163.5t40.5 199t-41 199t-109.5 163.5t-163.5 109t-199 40.5zM511 851q95 0 181 -37t149 -99.5t100 -149t37 -181.5q0 -88 -31 -167.5
t-87 -142.5q-56 90 -148 143t-200.5 53t-201 -53t-147.5 -143q-118 133 -118 310q0 95 37 181.5t99.5 149t148.5 99.5t181 37zM197 41q48 83 131.5 133t182.5 50t183 -49.5t132 -133.5q-63 -58 -144 -90.5t-171 -32.5q-89 0 -170 32.5t-144 90.5zM511 297q73 0 125 52
t52 125t-52 125t-125 52t-125 -52t-52 -125t52 -125t125 -52zM511.5 606q54.5 0 93 -39t38.5 -93.5t-38.5 -93t-93 -38.5t-93.5 38.5t-39 93t39 93.5t93.5 39z" />
    <glyph glyph-name="daishouhuo" unicode="&#xe68b;" 
d="M452 222l-271 178v-115l271 -178v115zM920 502q1 6 -4 11q-1 4 -5 7l-387 255q-4 2 -9 2l-220 5q-11 0 -15 -10.5t6 -16.5l100 -66l-48 -32q-2 -1 -5 -3l-211 -141q-6 -4 -6 -12v0l-1 -1v-248l7 -12l386 -255h1l2 -1q4 -2 8 -2q5 0 9 3l81 54q-7 13 -12 28l-63 -42v213
l356 234v-213l-3 -1q11 -11 21 -23l7 5q6 4 6 12v248v1.5t-1 0.5v0zM502 25l-356 234v213l356 -234v-213zM519 264l-360 237l172 116l360 -237zM687 526l-341 225l164 -3l341 -225zM756 282q-61 0 -104 -43t-43 -103.5t43 -103.5t104 -43t104 43t43 103.5t-43 103.5t-104 43
v0zM862 112h-130v129h44v-86h86v-43z" />
    <glyph glyph-name="muying" unicode="&#xe77e;" 
d="M612 135l-29 25q9 11 9 23q0 19 -23.5 34t-55.5 15t-55.5 -15t-23.5 -34q0 -11 8 -22l-30 -24q-17 21 -17 46q0 38 37 64q34 24 81 24t80 -24q37 -26 37 -64q0 -26 -18 -48zM427 122q-9 7 -15 15l30 24q4 -4 9 -8zM511.5 -62q-55.5 0 -95 39.5t-39.5 94.5t39.5 94.5
t95 39.5t94.5 -39.5t39 -94.5t-39 -94.5t-94.5 -39.5zM511.5 167q-39.5 0 -67.5 -28t-28 -67t28 -67t67.5 -28t67.5 28t28 67t-28 67t-67.5 28zM512 65h-1v0h-1q-116 0 -213 66q-88 60 -133 157q-42 6 -71 37q-34 35 -34 85q0 38 21.5 69.5t56.5 44.5q26 129 127 215
q51 43 113 67q64 24 133 24h1h2q69 0 133 -24q62 -24 113 -67q100 -86 127 -215q35 -13 56.5 -44.5t21.5 -69.5q0 -50 -34 -85q-29 -31 -71 -37q-45 -97 -134 -157q-96 -66 -212 -66h-1zM511 791v0q-126 0 -221 -80.5t-117 -204.5q-2 -12 -14 -15q-27 -8 -44.5 -30.5
t-17.5 -50.5q0 -34 23.5 -58.5t57.5 -25.5q12 -1 17 -12q40 -96 126 -153t190 -57v0v0v0h1q104 0 189.5 57t126.5 153q4 11 17 12q34 1 57 25.5t23 58.5q0 28 -17 50.5t-44 30.5q-12 3 -14 15q-22 124 -117.5 204.5t-220.5 80.5h-1v0zM521 596q-24 0 -50.5 10t-36.5 16
t-16 11l-2 2q-41 44 -30 89q10 43 67 79q27 17 52 26q8 3 15 -0.5t10 -11t-0.5 -15t-10.5 -10.5q-27 -10 -58 -31t-37 -46q-6 -24 19 -52q49 -35 90 -27q29 5 48 35v0q4 8 5 17q1 17 -18 31q-20 17 -39 11q-17 -6 -22 -23q-2 -7 -9.5 -11t-15 -1.5t-11.5 9.5t-1 14
q11 37 48 49q38 12 74 -17q36 -28 32 -67q-1 -18 -10 -33q-29 -45 -74 -53q-10 -1 -19 -1zM318 482.5q0 14.5 9 25t22.5 10.5t22.5 -10.5t9 -25t-9 -25t-22.5 -10.5t-22.5 10.5t-9 25zM648 482.5q0 14.5 9 25t22.5 10.5t22.5 -10.5t9 -25t-9 -25t-22.5 -10.5t-22.5 10.5
t-9 25z" />
    <glyph glyph-name="jiantou1" unicode="&#xe66e;" 
d="M568.5 384q-8.5 9 -19.5 9t-20 -9l-74 -74v387q0 13 -8 20.5t-20.5 7.5t-20.5 -7.5t-8 -20.5v-387l-74 74q-8 9 -19.5 9t-20 -9t-8.5 -20t8 -20l120 -119q6 -12 23 -12l22 6l120 125q8 9 8 20t-8.5 20z" />
    <glyph glyph-name="jiantou-copy" unicode="&#xe620;" 
d="M463 738v-846h77v846l175 -157v102l-215 193l-212 -193v-102z" />
    <glyph glyph-name="sort" unicode="&#xe61f;" 
d="M377 812h-223q-31 0 -53 -22t-22 -53v-223q0 -31 22 -53t53 -22h223q31 0 53 22v0q22 22 22 53v223q0 31 -22 53t-53 22zM416 514q0 -16 -12 -27v0q-11 -12 -27 -12h-223q-16 0 -27.5 11.5t-11.5 27.5v223q0 16 11.5 27.5t27.5 11.5h223q16 0 27.5 -11.5t11.5 -27.5v-223
zM618 439h224q31 0 53 22t22 53v223q0 31 -22 53t-53 22h-224q-31 0 -53 -22t-22 -53v-223q0 -31 22 -53t53 -22zM580 737q0 16 11 27.5t27 11.5h224q16 0 27 -11.5t11 -27.5v-223q0 -16 -11 -27.5t-27 -11.5h-224q-16 0 -27 11.5t-11 27.5v223zM377 331h-223q-31 0 -53 -22
v-1q-22 -22 -22 -53v-223q0 -31 22 -53t53 -22h223q31 0 53 22t22 53v223q0 32 -22 54t-53 22zM416 32q0 -16 -11.5 -27.5t-27.5 -11.5h-223q-16 0 -27.5 11.5t-11.5 27.5v223q0 17 11 28v0q12 11 28 11h223q16 0 27.5 -11.5t11.5 -27.5v-223v0zM937 4l-51 34q32 48 32 106
q0 78 -55 133t-133 55t-133 -55t-55 -133t55 -133v0q55 -55 133 -55q77 0 132 54l55 -36q6 -5 13.5 -3.5t12 8t3 13.5t-8.5 12v0zM730 -8q-63 0 -107.5 44.5t-44.5 107.5t44.5 107.5t107.5 44.5t107.5 -44.5t44.5 -107.5t-44.5 -107.5t-107.5 -44.5v0z" />
    <glyph glyph-name="dizhi1" unicode="&#xe615;" 
d="M512 -6q-106 0 -196 52.5t-142.5 143t-52.5 196.5t52.5 196t142.5 142.5t196 52.5t196.5 -52.5t142.5 -142.5t52 -196t-52 -196.5t-142.5 -143t-196.5 -52.5zM512 766q-103 0 -191 -51t-139 -138.5t-50.5 -191t51.5 -191t138.5 -138.5t190.5 -51q76 0 145.5 29t123.5 83
t83 123.5t29 145.5t-29 145.5t-83 123.5t-123.5 82.5t-145.5 28.5v0zM523 167q91 127 127 199q23 38 23 83q0 67 -47 114t-114 47t-114 -47t-47 -114q0 -45 23 -83q36 -77 127 -199q0 -1 0.5 -1t0.5 -1v0h1v0v-1h1v0l0.5 -0.5l0.5 -0.5v0q1 0 2 -1v0h0.5h0.5v0l1 -1v0v0h1h3
h1v0l0.5 0.5l0.5 0.5h1v0h1v0l1 1v0h1v0l0.5 0.5l0.5 0.5v0h1v1v0v0h1zM396 381q-18 32 -18 68q0 56 39 95q39 40 95 40t95 -40q40 -39 40 -95q0 -37 -19 -68l-1 -2v0q-39 -74 -115 -182q-37 50 -65.5 96t-38 64t-11.5 22q0 1 -1 2zM512.5 356q40.5 0 69 28.5t28.5 69
t-28.5 69t-69 28.5t-69 -28.5t-28.5 -69t28.5 -69t69 -28.5zM512.5 525q29.5 0 50 -21t20.5 -50.5t-20.5 -50.5t-50 -21t-50.5 21t-21 50.5t21 50.5t50.5 21z" />
    <glyph glyph-name="zhanghao" unicode="&#xe655;" 
d="M172 36q-10 0 -15 9q-4 6 -2 12.5t8 10.5q14 8 114 37q104 31 114 37q6 4 9 30t1 56l-13 11q-5 5 -5 12q-4 38 -10 49q-15 23 -37 89q-20 19 -20 46q0 23 16 42q-12 61 -12 102q0 77 52 119.5t147 42.5q86 0 133.5 -42.5t47.5 -119.5q0 -38 -6 -101q17 -19 17 -43
q0 -27 -20 -46q-19 -57 -36 -88q-6 -13 -11 -51q0 -7 -5 -11l-13 -11q-2 -30 1 -56t9 -30q11 -6 120 -37l33 -9q65 -18 78 -25q7 -3 9 -10t-1 -13t-10 -8.5t-13 0.5q-10 5 -72 23l-33 10q-114 31 -129 41q-35 22 -25 124q0 6 5 11l13 12q6 40 14 55q7 15 16 37t13.5 35.5
t5.5 15.5q2 5 6 9q11 11 11 22q0 14 -11 22q-8 6 -7 16q7 40 7 106q0 38 -13 64.5t-36 39.5t-46.5 18.5t-51.5 5.5q-22 0 -41.5 -2.5t-43 -10.5t-40.5 -21.5t-28.5 -37.5t-11.5 -56q0 -36 13 -104q3 -11 -6 -18q-11 -11 -11 -22q0 -6 3 -11.5t5 -8t3 -2.5q4 -4 6 -9
q21 -64 34 -87q10 -15 15 -57l13 -11q5 -5 5 -11q1 -15 2 -38.5t-6 -50t-22 -36.5q-14 -9 -122 -40q-96 -28 -106 -34q-4 -3 -8 -3zM512 -101q-98 0 -188 38.5t-155 103t-103.5 154.5t-38.5 188.5t38.5 188t103.5 154.5t155 103.5t188 38.5q115 0 216 -50t170 -142
q4 -5 3 -12t-6.5 -11t-12 -3t-10.5 6q-65 85 -159 132t-201 47q-92 0 -175.5 -36t-144 -96.5t-96.5 -144t-36 -175t36 -175.5t96.5 -144.5t144 -96t175.5 -35.5t175.5 35.5t144 96t96.5 144.5t36 175q0 90 -35 173q-2 6 0.5 12.5t9 9t12.5 0t9 -9.5q37 -88 37 -185
q0 -98 -38.5 -188t-103.5 -154.5t-155 -103t-188 -38.5z" />
    <glyph glyph-name="fukuan" unicode="&#xe604;" 
d="M498 566q13 0 21 -9t8 -29h45q0 31 -15 51q-16 19 -44 23v34h-25v-34q-29 -2 -46 -19.5t-17 -43.5q0 -15 5 -27q5 -11 14 -20q9 -8 21 -14q13 -7 30 -13q17 -7 24.5 -14.5t7.5 -20.5q0 -12 -8.5 -19.5t-21.5 -7.5q-17 0 -26 10t-9 29h-46q0 -32 18 -51.5t50 -23.5v-31h25
v31q29 3 46 20t17 44q0 14 -4 25q-5 11 -13.5 19.5t-20.5 15t-31 14t-26 14.5q-7 8 -7 20q0 13 7 20q8 7 21 7zM894 716h-150v71q0 34 -24 58.5t-59 24.5q-30 0 -53 -20q-11 21 -31 33.5t-44 12.5t-43.5 -12.5t-30.5 -33.5q-23 20 -53 20t-53 -19t-29 -48q-21 14 -46 14
q-35 0 -59 -24t-24 -58v-19h-100q-8 0 -13.5 -5.5t-5.5 -13.5v-427q0 -8 5.5 -13.5t13.5 -5.5h77v-40q0 -81 37 -152t102 -118v-43q0 -7 6 -12.5t13.5 -5.5t13 5.5t5.5 12.5v53q0 10 -8 15q-62 41 -97 106t-35 139v40h418v-14q-60 -7 -100.5 -52t-40.5 -106q0 -8 5.5 -13.5
t13.5 -5.5t13.5 5.5t5.5 13.5q0 50 35.5 86t86.5 36q8 0 13.5 5.5t5.5 13.5v50q0 71 35 112q29 34 63 34q7 0 13.5 -2t13.5 -10t7 -22v-171q0 -74 -34.5 -139t-96.5 -106q-9 -5 -9 -15v-52q0 -8 6 -13.5t13.5 -5.5t13 5.5t5.5 13.5v42q66 47 103 118.5t37 151.5v40h58
q8 0 13.5 5.5t5.5 13.5v427q0 8 -5.5 13.5t-12.5 5.5zM616 787q0 19 13.5 32t32 13t32 -13t13.5 -32v-71h-91v71zM488 814q0 18 13.5 31.5t32 13.5t32 -13.5t13.5 -31.5v-98h-91v98zM360 787q0 19 13.5 32t32 13t32 -13t13.5 -32v-71h-90zM233 735q0 18 13 31.5t31.5 13.5
t32 -13.5t13.5 -31.5v-19h-90v19zM114 678h81q-6 -30 -28 -52.5t-53 -28.5v81zM114 289v81q31 -6 53 -28.5t28 -52.5h-81zM875 289h-40v63q18 13 40 18v-81zM875 407q-21 -2 -41 -12q-4 27 -23 42.5t-48 15.5q-51 0 -91 -46q-39 -46 -44 -118h-395q-6 46 -39.5 79t-79.5 39
v153q46 6 79.5 39t39.5 79h523q7 -46 40 -79t79 -39v-153zM875 598q-31 5 -53 27.5t-28 52.5h81v-80z" />
    <glyph glyph-name="dizhi2" unicode="&#xe63e;" 
d="M512 -128q-8 8 -22.5 23.5t-56 62t-79 92t-83.5 109t-79 119.5t-55.5 115.5t-22.5 104.5q0 108 53 199.5t145 145t200 53.5t200 -53.5t145 -145t53 -199.5q0 -62 -41 -149t-99.5 -167.5t-117 -151.5t-99.5 -115t-41 -43zM512 839v0q-93 0 -171.5 -45.5t-124 -124.5
t-45.5 -171q0 -143 241 -428q56 -67 100 -113q0 -1 35 37.5t85.5 99.5t100.5 131t85 145t35 128v0q0 92 -45.5 171t-124 124.5t-171.5 45.5zM512 327v0q-71 0 -121 50t-50 120.5t50 120.5t121 50t121 -50t50 -120.5t-50 -120.5t-121 -50zM512 612q-47 0 -80.5 -33.5
t-33.5 -80.5t33.5 -80.5t80.5 -33.5t80.5 33.5t33.5 80.5t-33.5 80.5t-80.5 33.5z" />
    <glyph glyph-name="nanzhuang" unicode="&#xe617;" 
d="M744 621l3 37v2q0 3 -1 5q-1 3 -2.5 8t-8 17t-15.5 23t-26 24t-38 23q-54 24 -131 24q-53 0 -97.5 -12t-69 -26.5t-43.5 -34t-24 -28t-7 -13.5q-3 -5 -3 -10q0 -1 1 -2l3 -36l-173 -63l2 -575h798v575zM701 658l-16 -206l-139 129l110 126q34 -21 45 -49zM515 423
l60 -393h-128zM513 437l-51 60l52 50l53 -48zM525 738q49 0 87 -11l-98 -114l-98 108q47 17 109 17zM374 700q1 -2 3 -4l105 -116l-136 -131l-18 206q15 25 46 45zM158 526l131 48l16 -177q1 -15 15 -20q3 -1 8 -1q9 0 16 6l85 83l39 -46l-68 -389h-240zM866 30h-245
l-60 392l40 46l88 -82q11 -10 24.5 -4.5t14.5 20.5l12 171l126 -47v-496v0z" />
    <glyph glyph-name="shouyeshouye" unicode="&#xe605;" 
d="M949 377l-440 411l-441 -410q-6 -6 -6.5 -15t5.5 -15.5t15 -6.5t15 6l412 383l411 -384q6 -6 14 -6q10 0 16 7q6 6 6 15t-7 15v0zM815 368q-9 0 -15.5 -6t-6.5 -15v-327h-170v227h-228v-227h-171v327q0 9 -6 15t-15 6t-15.5 -6t-6.5 -15v-370h257v228h142v-228h256v370
q0 9 -6 15t-15 6v0zM665 674h128v-114q0 -9 6.5 -15t15.5 -6t15 6t6 15v157h-171q-9 0 -15 -6.5t-6 -15.5t6 -15t15 -6v0zM665 674z" />
    <glyph glyph-name="tubiaozhizuomoban" unicode="&#xe618;" 
d="M512 -60q-90 0 -173 35q-80 34 -141.5 95.5t-94.5 141.5q-35 82 -35 172.5t35 173.5q33 79 94.5 140.5t141.5 95.5q83 35 173 35t173 -35q80 -34 141.5 -95.5t94.5 -141.5q35 -82 35 -172.5t-35 -172.5q-33 -80 -94.5 -141.5t-141.5 -95.5q-83 -35 -173 -35zM512 804
q-114 0 -210.5 -56.5t-152.5 -153t-56 -210t56 -210t152.5 -153t210.5 -56.5t210.5 56.5t152.5 153t56 210t-56 210t-152.5 153t-210.5 56.5zM732 620h-430l-55 -68v-425h541v425zM530 596h191l35 -44h-226v44zM312 596h192v-44h-226zM763 155h-493v372h493v-372zM378 283
l21 7q7 -36 38 -34q48 2 49 84q-15 -30 -51 -30q-57 6 -62 68q4 66 66 71q36 1 53.5 -24.5t16.5 -76.5q0 -108 -74 -109q-45 2 -57 44zM486 367q0 64 -49 63q-39 -3 -42 -50q2 -47 42 -50q40 0 49 37zM537 283l21 7q7 -36 38 -34q48 2 49 84q-15 -30 -51 -30q-57 6 -62 68
q4 66 66 71q36 1 53.5 -24.5t17.5 -76.5q0 -108 -75 -109q-45 2 -57 44zM645 367q0 64 -49 63q-39 -3 -42 -50q2 -47 42 -50q40 0 49 37z" />
  </font>
</defs>
</svg>
